<svg width="1645" height="702" viewBox="0 0 1645 702" fill="none" xmlns="http://www.w3.org/2000/svg">
<g opacity="0.8">
<g opacity="0.1">
<path d="M1430.15 1.56698L1428.61 0L1417.32 11.4912L1418.86 13.0582L1430.15 1.56698Z" fill="#EDEDED"/>
<path d="M1418.54 0.0896195L1417 1.6566L1428.29 13.1478L1429.83 11.5808L1418.54 0.0896195Z" fill="#EDEDED"/>
<path d="M1460.85 1.56698L1459.31 0L1448.01 11.4912L1449.55 13.0582L1460.85 1.56698Z" fill="#EDEDED"/>
<path d="M1449.23 0.0896195L1447.69 1.6566L1458.98 13.1478L1460.52 11.5808L1449.23 0.0896195Z" fill="#EDEDED"/>
<path d="M1491.54 1.56698L1490 0L1478.71 11.4912L1480.25 13.0582L1491.54 1.56698Z" fill="#EDEDED"/>
<path d="M1479.92 0.0896195L1478.38 1.6566L1489.68 13.1478L1491.22 11.5808L1479.92 0.0896195Z" fill="#EDEDED"/>
<path d="M1522.23 1.56698L1520.69 0L1509.4 11.4912L1510.94 13.0582L1522.23 1.56698Z" fill="#EDEDED"/>
<path d="M1510.62 0.0896195L1509.08 1.6566L1520.37 13.1478L1521.91 11.5808L1510.62 0.0896195Z" fill="#EDEDED"/>
<path d="M1552.92 1.56698L1551.38 0L1540.09 11.4912L1541.63 13.0582L1552.92 1.56698Z" fill="#EDEDED"/>
<path d="M1541.31 0.0896195L1539.77 1.6566L1551.06 13.1478L1552.6 11.5808L1541.31 0.0896195Z" fill="#EDEDED"/>
<path d="M1460.85 33.7061L1459.31 32.1391L1448.01 43.6303L1449.55 45.1973L1460.85 33.7061Z" fill="#EDEDED"/>
<path d="M1449.23 32.2287L1447.69 33.7957L1458.98 45.2869L1460.52 43.72L1449.23 32.2287Z" fill="#EDEDED"/>
<path d="M1491.54 33.7061L1490 32.1391L1478.71 43.6303L1480.25 45.1973L1491.54 33.7061Z" fill="#EDEDED"/>
<path d="M1479.92 32.2287L1478.38 33.7957L1489.68 45.2869L1491.22 43.72L1479.92 32.2287Z" fill="#EDEDED"/>
<path d="M1522.23 33.7061L1520.69 32.1391L1509.4 43.6303L1510.94 45.1973L1522.23 33.7061Z" fill="#EDEDED"/>
<path d="M1510.62 32.2287L1509.08 33.7957L1520.37 45.2869L1521.91 43.72L1510.62 32.2287Z" fill="#EDEDED"/>
<path d="M1552.92 33.7061L1551.38 32.1391L1540.09 43.6303L1541.63 45.1973L1552.92 33.7061Z" fill="#EDEDED"/>
<path d="M1541.31 32.2287L1539.77 33.7957L1551.06 45.2869L1552.6 43.72L1541.31 32.2287Z" fill="#EDEDED"/>
<path d="M1460.85 62.9235L1459.31 61.3565L1448.01 72.8477L1449.55 74.4147L1460.85 62.9235Z" fill="#EDEDED"/>
<path d="M1449.23 61.4461L1447.69 63.0131L1458.98 74.5043L1460.52 72.9373L1449.23 61.4461Z" fill="#EDEDED"/>
<path d="M1491.54 62.9235L1490 61.3565L1478.71 72.8477L1480.25 74.4147L1491.54 62.9235Z" fill="#EDEDED"/>
<path d="M1479.92 61.4461L1478.38 63.0131L1489.68 74.5043L1491.22 72.9373L1479.92 61.4461Z" fill="#EDEDED"/>
<path d="M1522.23 62.9235L1520.69 61.3565L1509.4 72.8477L1510.94 74.4147L1522.23 62.9235Z" fill="#EDEDED"/>
<path d="M1510.62 61.4461L1509.08 63.0131L1520.37 74.5043L1521.91 72.9373L1510.62 61.4461Z" fill="#EDEDED"/>
<path d="M1552.92 62.9235L1551.38 61.3565L1540.09 72.8477L1541.63 74.4147L1552.92 62.9235Z" fill="#EDEDED"/>
<path d="M1541.31 61.4461L1539.77 63.0131L1551.06 74.5043L1552.6 72.9373L1541.31 61.4461Z" fill="#EDEDED"/>
<path d="M1583.62 62.9235L1582.08 61.3565L1570.78 72.8477L1572.32 74.4147L1583.62 62.9235Z" fill="#EDEDED"/>
<path d="M1572 61.4461L1570.46 63.0131L1581.75 74.5043L1583.29 72.9373L1572 61.4461Z" fill="#EDEDED"/>
<path d="M1614.31 62.9235L1612.77 61.3565L1601.48 72.8477L1603.02 74.4147L1614.31 62.9235Z" fill="#EDEDED"/>
<path d="M1602.69 61.4461L1601.15 63.0131L1612.45 74.5043L1613.99 72.9373L1602.69 61.4461Z" fill="#EDEDED"/>
<path d="M1645 62.9235L1643.46 61.3565L1632.17 72.8477L1633.71 74.4147L1645 62.9235Z" fill="#EDEDED"/>
<path d="M1633.39 61.4461L1631.85 63.0131L1643.14 74.5043L1644.68 72.9373L1633.39 61.4461Z" fill="#EDEDED"/>
<path d="M1552.92 95.0626L1551.38 93.4956L1540.09 104.987L1541.63 106.554L1552.92 95.0626Z" fill="#EDEDED"/>
<path d="M1541.31 93.5853L1539.77 95.1523L1551.06 106.643L1552.6 105.076L1541.31 93.5853Z" fill="#EDEDED"/>
<path d="M1430.15 95.0626L1428.61 93.4956L1417.32 104.987L1418.86 106.554L1430.15 95.0626Z" fill="#EDEDED"/>
<path d="M1418.54 93.5853L1417 95.1523L1428.29 106.643L1429.83 105.076L1418.54 93.5853Z" fill="#EDEDED"/>
<path d="M1460.85 95.0626L1459.31 93.4956L1448.01 104.987L1449.55 106.554L1460.85 95.0626Z" fill="#EDEDED"/>
<path d="M1449.23 93.5853L1447.69 95.1523L1458.98 106.643L1460.52 105.076L1449.23 93.5853Z" fill="#EDEDED"/>
<path d="M1491.54 95.0626L1490 93.4956L1478.71 104.987L1480.25 106.554L1491.54 95.0626Z" fill="#EDEDED"/>
<path d="M1479.92 93.5853L1478.38 95.1523L1489.68 106.643L1491.22 105.076L1479.92 93.5853Z" fill="#EDEDED"/>
<path d="M1522.23 95.0626L1520.69 93.4956L1509.4 104.987L1510.94 106.554L1522.23 95.0626Z" fill="#EDEDED"/>
<path d="M1510.62 93.5853L1509.08 95.1523L1520.37 106.643L1521.91 105.076L1510.62 93.5853Z" fill="#EDEDED"/>
<path d="M1522.23 127.202L1520.69 125.635L1509.4 137.126L1510.94 138.693L1522.23 127.202Z" fill="#EDEDED"/>
<path d="M1510.62 125.724L1509.08 127.291L1520.37 138.783L1521.91 137.216L1510.62 125.724Z" fill="#EDEDED"/>
<path d="M1552.92 127.202L1551.38 125.635L1540.09 137.126L1541.63 138.693L1552.92 127.202Z" fill="#EDEDED"/>
<path d="M1541.31 125.724L1539.77 127.291L1551.06 138.783L1552.6 137.216L1541.31 125.724Z" fill="#EDEDED"/>
<path d="M1583.62 95.0626L1582.08 93.4956L1570.78 104.987L1572.32 106.554L1583.62 95.0626Z" fill="#EDEDED"/>
<path d="M1572 93.5853L1570.46 95.1523L1581.75 106.643L1583.29 105.076L1572 93.5853Z" fill="#EDEDED"/>
<path d="M1583.62 127.202L1582.08 125.635L1570.78 137.126L1572.32 138.693L1583.62 127.202Z" fill="#EDEDED"/>
<path d="M1572 125.724L1570.46 127.291L1581.75 138.783L1583.29 137.216L1572 125.724Z" fill="#EDEDED"/>
<path d="M1614.31 95.0626L1612.77 93.4956L1601.48 104.987L1603.02 106.554L1614.31 95.0626Z" fill="#EDEDED"/>
<path d="M1602.69 93.5853L1601.15 95.1523L1612.45 106.643L1613.99 105.076L1602.69 93.5853Z" fill="#EDEDED"/>
<path d="M1614.31 127.202L1612.77 125.635L1601.48 137.126L1603.02 138.693L1614.31 127.202Z" fill="#EDEDED"/>
<path d="M1602.69 125.724L1601.15 127.291L1612.45 138.783L1613.99 137.216L1602.69 125.724Z" fill="#EDEDED"/>
<path d="M1552.92 156.419L1551.38 154.852L1540.09 166.343L1541.63 167.91L1552.92 156.419Z" fill="#EDEDED"/>
<path d="M1541.31 154.942L1539.77 156.509L1551.06 168L1552.6 166.433L1541.31 154.942Z" fill="#EDEDED"/>
<path d="M1583.62 156.419L1582.08 154.852L1570.78 166.343L1572.32 167.91L1583.62 156.419Z" fill="#EDEDED"/>
<path d="M1572 154.942L1570.46 156.509L1581.75 168L1583.29 166.433L1572 154.942Z" fill="#EDEDED"/>
<path d="M1614.31 156.419L1612.77 154.852L1601.48 166.343L1603.02 167.91L1614.31 156.419Z" fill="#EDEDED"/>
<path d="M1602.69 154.942L1601.15 156.509L1612.45 168L1613.99 166.433L1602.69 154.942Z" fill="#EDEDED"/>
<path d="M1645 156.419L1643.46 154.852L1632.17 166.343L1633.71 167.91L1645 156.419Z" fill="#EDEDED"/>
<path d="M1633.39 154.942L1631.85 156.509L1643.14 168L1644.68 166.433L1633.39 154.942Z" fill="#EDEDED"/>
</g>
<path opacity="0.1" d="M49.5458 485.1V490H48.8528V485.709H47.7468V485.1H49.5458Z" fill="white"/>
<path opacity="0.1" d="M97.2064 489.391V490H93.6854V489.524L95.6804 487.599C95.9231 487.366 96.0864 487.165 96.1704 486.997C96.2544 486.824 96.2964 486.652 96.2964 486.479C96.2964 486.222 96.2054 486.024 96.0234 485.884C95.8461 485.739 95.5894 485.667 95.2534 485.667C94.7121 485.667 94.2944 485.844 94.0004 486.199L93.5244 485.786C93.7157 485.553 93.9654 485.371 94.2734 485.24C94.5861 485.109 94.9337 485.044 95.3164 485.044C95.8297 485.044 96.2381 485.168 96.5414 485.415C96.8447 485.658 96.9964 485.989 96.9964 486.409C96.9964 486.67 96.9404 486.918 96.8284 487.151C96.7164 487.384 96.5041 487.65 96.1914 487.949L94.6934 489.391H97.2064Z" fill="white"/>
<path opacity="0.1" d="M143.719 487.158C144.2 487.205 144.566 487.354 144.818 487.606C145.07 487.853 145.196 488.171 145.196 488.558C145.196 488.838 145.126 489.092 144.986 489.321C144.846 489.545 144.636 489.725 144.356 489.86C144.081 489.991 143.743 490.056 143.341 490.056C142.991 490.056 142.655 490.005 142.333 489.902C142.011 489.795 141.748 489.648 141.542 489.461L141.864 488.908C142.032 489.067 142.247 489.195 142.508 489.293C142.77 489.386 143.047 489.433 143.341 489.433C143.705 489.433 143.988 489.356 144.188 489.202C144.394 489.048 144.496 488.836 144.496 488.565C144.496 488.294 144.396 488.084 144.195 487.935C143.995 487.786 143.691 487.711 143.285 487.711H142.893V487.221L144.125 485.709H141.766V485.1H145V485.576L143.719 487.158Z" fill="white"/>
<path opacity="0.1" d="M193.015 488.796H192.084V490H191.405V488.796H188.682V488.306L191.188 485.1H191.944L189.543 488.194H191.426V487.13H192.084V488.194H193.015V488.796Z" fill="white"/>
<path opacity="0.1" d="M238.233 487.053C238.933 487.053 239.446 487.186 239.773 487.452C240.104 487.713 240.27 488.073 240.27 488.53C240.27 488.819 240.2 489.081 240.06 489.314C239.924 489.543 239.717 489.725 239.437 489.86C239.161 489.991 238.821 490.056 238.415 490.056C238.069 490.056 237.736 490.005 237.414 489.902C237.092 489.795 236.826 489.648 236.616 489.461L236.938 488.908C237.106 489.067 237.32 489.195 237.582 489.293C237.843 489.386 238.118 489.433 238.408 489.433C238.776 489.433 239.061 489.356 239.262 489.202C239.467 489.043 239.57 488.829 239.57 488.558C239.57 488.264 239.458 488.042 239.234 487.893C239.01 487.739 238.627 487.662 238.086 487.662H236.973L237.232 485.1H239.997V485.709H237.82L237.687 487.053H238.233Z" fill="white"/>
<path opacity="0.1" d="M287.028 487.025C287.35 487.025 287.637 487.086 287.889 487.207C288.146 487.328 288.346 487.503 288.491 487.732C288.636 487.956 288.708 488.215 288.708 488.509C288.708 488.817 288.631 489.088 288.477 489.321C288.328 489.554 288.12 489.736 287.854 489.867C287.593 489.993 287.299 490.056 286.972 490.056C286.314 490.056 285.805 489.844 285.446 489.419C285.091 488.994 284.914 488.392 284.914 487.613C284.914 487.067 285.01 486.603 285.201 486.22C285.397 485.833 285.668 485.541 286.013 485.345C286.363 485.144 286.769 485.044 287.231 485.044C287.469 485.044 287.693 485.07 287.903 485.121C288.113 485.168 288.295 485.238 288.449 485.331L288.183 485.877C287.95 485.723 287.637 485.646 287.245 485.646C286.736 485.646 286.337 485.805 286.048 486.122C285.759 486.435 285.614 486.892 285.614 487.494C285.614 487.569 285.616 487.627 285.621 487.669C285.761 487.459 285.952 487.3 286.195 487.193C286.442 487.081 286.72 487.025 287.028 487.025ZM286.944 489.489C287.266 489.489 287.527 489.403 287.728 489.23C287.929 489.057 288.029 488.826 288.029 488.537C288.029 488.248 287.926 488.019 287.721 487.851C287.52 487.678 287.25 487.592 286.909 487.592C286.69 487.592 286.494 487.634 286.321 487.718C286.153 487.802 286.02 487.916 285.922 488.061C285.829 488.206 285.782 488.367 285.782 488.544C285.782 488.717 285.826 488.875 285.915 489.02C286.008 489.16 286.141 489.274 286.314 489.363C286.491 489.447 286.701 489.489 286.944 489.489Z" fill="white"/>
<path opacity="0.1" d="M336.565 485.1V485.576L334.584 490H333.842L335.781 485.709H333.541V486.584H332.869V485.1H336.565Z" fill="white"/>
<rect opacity="0.1" x="47.6908" y="500.59" width="257.996" height="1.17266" fill="white"/>
<path opacity="0.1" d="M49.6788 528.471C50.1921 528.471 50.5841 528.597 50.8548 528.849C51.1301 529.101 51.2678 529.476 51.2678 529.976V532.216H50.6308V531.726C50.5188 531.898 50.3578 532.031 50.1478 532.125C49.9425 532.213 49.6975 532.258 49.4128 532.258C48.9975 532.258 48.6638 532.157 48.4118 531.957C48.1645 531.756 48.0408 531.492 48.0408 531.166C48.0408 530.839 48.1598 530.578 48.3978 530.382C48.6358 530.181 49.0138 530.081 49.5318 530.081H50.5958V529.948C50.5958 529.658 50.5118 529.437 50.3438 529.283C50.1758 529.129 49.9285 529.052 49.6018 529.052C49.3825 529.052 49.1678 529.089 48.9578 529.164C48.7478 529.234 48.5705 529.329 48.4258 529.451L48.1458 528.947C48.3371 528.793 48.5658 528.676 48.8318 528.597C49.0978 528.513 49.3801 528.471 49.6788 528.471ZM49.5248 531.74C49.7815 531.74 50.0031 531.684 50.1898 531.572C50.3765 531.455 50.5118 531.292 50.5958 531.082V530.564H49.5598C48.9905 530.564 48.7058 530.755 48.7058 531.138C48.7058 531.324 48.7781 531.471 48.9228 531.579C49.0675 531.686 49.2681 531.74 49.5248 531.74Z" fill="white"/>
<path opacity="0.1" d="M98.0254 531.012H97.0944V532.216H96.4154V531.012H93.6924V530.522L96.1984 527.316H96.9544L94.5534 530.41H96.4364V529.346H97.0944V530.41H98.0254V531.012Z" fill="white"/>
<path opacity="0.1" d="M144.111 528.471C144.471 528.471 144.793 528.55 145.077 528.709C145.362 528.867 145.584 529.089 145.742 529.374C145.906 529.658 145.987 529.987 145.987 530.361C145.987 530.734 145.906 531.065 145.742 531.355C145.584 531.639 145.362 531.861 145.077 532.02C144.793 532.178 144.471 532.258 144.111 532.258C143.836 532.258 143.584 532.204 143.355 532.097C143.127 531.989 142.938 531.833 142.788 531.628V532.216H142.144V527.022H142.816V529.066C142.966 528.87 143.152 528.723 143.376 528.625C143.6 528.522 143.845 528.471 144.111 528.471ZM144.055 531.67C144.293 531.67 144.506 531.616 144.692 531.509C144.884 531.397 145.033 531.243 145.14 531.047C145.252 530.846 145.308 530.617 145.308 530.361C145.308 530.104 145.252 529.878 145.14 529.682C145.033 529.481 144.884 529.327 144.692 529.22C144.506 529.112 144.293 529.059 144.055 529.059C143.822 529.059 143.61 529.112 143.418 529.22C143.227 529.327 143.078 529.481 142.97 529.682C142.863 529.878 142.809 530.104 142.809 530.361C142.809 530.617 142.863 530.846 142.97 531.047C143.078 531.243 143.227 531.397 143.418 531.509C143.61 531.616 143.822 531.67 144.055 531.67Z" fill="white"/>
<path opacity="0.1" d="M190.271 527.316V532.216H189.578V527.925H188.472V527.316H190.271ZM193.261 532.258C192.883 532.258 192.544 532.176 192.246 532.013C191.952 531.849 191.721 531.625 191.553 531.341C191.385 531.051 191.301 530.725 191.301 530.361C191.301 529.997 191.385 529.672 191.553 529.388C191.721 529.098 191.952 528.874 192.246 528.716C192.544 528.552 192.883 528.471 193.261 528.471C193.597 528.471 193.895 528.538 194.157 528.674C194.423 528.809 194.628 529.005 194.773 529.262L194.262 529.591C194.145 529.413 194 529.28 193.828 529.192C193.655 529.103 193.464 529.059 193.254 529.059C193.011 529.059 192.792 529.112 192.596 529.22C192.404 529.327 192.253 529.481 192.141 529.682C192.033 529.878 191.98 530.104 191.98 530.361C191.98 530.622 192.033 530.853 192.141 531.054C192.253 531.25 192.404 531.401 192.596 531.509C192.792 531.616 193.011 531.67 193.254 531.67C193.464 531.67 193.655 531.625 193.828 531.537C194 531.448 194.145 531.315 194.262 531.138L194.773 531.46C194.628 531.716 194.423 531.915 194.157 532.055C193.895 532.19 193.597 532.258 193.261 532.258Z" fill="white"/>
<path opacity="0.1" d="M239.5 532.216L238.429 530.795L237.344 532.216H236.595L238.058 530.319L236.665 528.506H237.414L238.436 529.843L239.451 528.506H240.186L238.786 530.319L240.263 532.216H239.5ZM242.269 527.316V532.216H241.576V527.925H240.47V527.316H242.269Z" fill="white"/>
<path opacity="0.1" d="M288.358 531.607V532.216H284.837V531.74L286.832 529.815C287.075 529.581 287.238 529.381 287.322 529.213C287.406 529.04 287.448 528.867 287.448 528.695C287.448 528.438 287.357 528.24 287.175 528.1C286.998 527.955 286.741 527.883 286.405 527.883C285.864 527.883 285.446 528.06 285.152 528.415L284.676 528.002C284.867 527.768 285.117 527.586 285.425 527.456C285.738 527.325 286.085 527.26 286.468 527.26C286.981 527.26 287.39 527.383 287.693 527.631C287.996 527.873 288.148 528.205 288.148 528.625C288.148 528.886 288.092 529.133 287.98 529.367C287.868 529.6 287.656 529.866 287.343 530.165L285.845 531.607H288.358Z" fill="white"/>
<path opacity="0.1" d="M336.579 528.506L334.78 532.587C334.621 532.965 334.434 533.231 334.22 533.385C334.01 533.539 333.755 533.616 333.457 533.616C333.275 533.616 333.097 533.585 332.925 533.525C332.757 533.469 332.617 533.385 332.505 533.273L332.792 532.769C332.983 532.951 333.205 533.042 333.457 533.042C333.62 533.042 333.755 532.997 333.863 532.909C333.975 532.825 334.075 532.678 334.164 532.468L334.283 532.209L332.645 528.506H333.345L334.64 531.474L335.921 528.506H336.579ZM339.949 529.647C340.229 529.754 340.443 529.908 340.593 530.109C340.742 530.309 340.817 530.55 340.817 530.83C340.817 531.124 340.737 531.38 340.579 531.6C340.42 531.814 340.194 531.98 339.9 532.097C339.606 532.213 339.26 532.272 338.864 532.272C338.472 532.272 338.129 532.213 337.835 532.097C337.545 531.98 337.321 531.814 337.163 531.6C337.004 531.38 336.925 531.124 336.925 530.83C336.925 530.55 336.997 530.309 337.142 530.109C337.291 529.908 337.506 529.754 337.786 529.647C337.562 529.539 337.391 529.397 337.275 529.22C337.158 529.042 337.1 528.832 337.1 528.59C337.1 528.319 337.172 528.083 337.317 527.883C337.466 527.682 337.674 527.528 337.94 527.421C338.206 527.313 338.514 527.26 338.864 527.26C339.218 527.26 339.529 527.313 339.795 527.421C340.065 527.528 340.273 527.682 340.418 527.883C340.567 528.083 340.642 528.319 340.642 528.59C340.642 528.828 340.581 529.038 340.46 529.22C340.343 529.397 340.173 529.539 339.949 529.647ZM338.864 527.827C338.532 527.827 338.271 527.899 338.08 528.044C337.888 528.184 337.793 528.375 337.793 528.618C337.793 528.86 337.886 529.052 338.073 529.192C338.264 529.332 338.528 529.402 338.864 529.402C339.204 529.402 339.47 529.332 339.662 529.192C339.858 529.052 339.956 528.86 339.956 528.618C339.956 528.375 339.855 528.184 339.655 528.044C339.459 527.899 339.195 527.827 338.864 527.827ZM338.864 531.705C339.251 531.705 339.557 531.625 339.781 531.467C340.005 531.303 340.117 531.084 340.117 530.809C340.117 530.538 340.005 530.326 339.781 530.172C339.557 530.013 339.251 529.934 338.864 529.934C338.476 529.934 338.173 530.013 337.954 530.172C337.734 530.326 337.625 530.538 337.625 530.809C337.625 531.084 337.734 531.303 337.954 531.467C338.173 531.625 338.476 531.705 338.864 531.705Z" fill="white"/>
<rect opacity="0.1" x="47.6908" y="542.806" width="134.861" height="1.17266" fill="white"/>
<path opacity="0.1" d="M262.276 648.053C263.425 648.053 264.095 647.106 264.095 645.469C264.095 643.835 263.415 642.882 262.276 642.882C261.131 642.882 260.451 643.832 260.451 645.462C260.451 647.103 261.125 648.053 262.276 648.053ZM262.276 647.383C261.606 647.383 261.224 646.71 261.224 645.462C261.224 644.228 261.613 643.552 262.276 643.552C262.939 643.552 263.322 644.225 263.322 645.462C263.322 646.713 262.946 647.383 262.276 647.383ZM267.172 648.053C268.321 648.053 268.991 647.106 268.991 645.469C268.991 643.835 268.31 642.882 267.172 642.882C266.027 642.882 265.347 643.832 265.347 645.462C265.347 647.103 266.02 648.053 267.172 648.053ZM267.172 647.383C266.502 647.383 266.12 646.71 266.12 645.462C266.12 644.228 266.509 643.552 267.172 643.552C267.835 643.552 268.218 644.225 268.218 645.462C268.218 646.713 267.842 647.383 267.172 647.383ZM270.284 644.427V644.437H271.009V644.427C271.009 643.9 271.374 643.545 271.918 643.545C272.427 643.545 272.813 643.883 272.813 644.334C272.813 644.697 272.653 644.956 271.993 645.643L270.325 647.38V647.933H273.647V647.246H271.391V647.188L272.489 646.077C273.316 645.24 273.569 644.813 273.569 644.29C273.569 643.476 272.878 642.882 271.942 642.882C270.971 642.882 270.284 643.517 270.284 644.427ZM262.276 656.053C263.425 656.053 264.095 655.106 264.095 653.469C264.095 651.835 263.415 650.882 262.276 650.882C261.131 650.882 260.451 651.832 260.451 653.462C260.451 655.103 261.125 656.053 262.276 656.053ZM262.276 655.383C261.606 655.383 261.224 654.71 261.224 653.462C261.224 652.228 261.613 651.552 262.276 651.552C262.939 651.552 263.322 652.225 263.322 653.462C263.322 654.713 262.946 655.383 262.276 655.383ZM267.172 656.053C268.321 656.053 268.991 655.106 268.991 653.469C268.991 651.835 268.31 650.882 267.172 650.882C266.027 650.882 265.347 651.832 265.347 653.462C265.347 655.103 266.02 656.053 267.172 656.053ZM267.172 655.383C266.502 655.383 266.12 654.71 266.12 653.462C266.12 652.228 266.509 651.552 267.172 651.552C267.835 651.552 268.218 652.225 268.218 653.462C268.218 654.713 267.842 655.383 267.172 655.383ZM271.381 653.719H272.003C272.649 653.719 273.049 654.036 273.049 654.546C273.049 655.031 272.625 655.376 272.024 655.376C271.426 655.376 271.015 655.072 270.968 654.594H270.233C270.277 655.475 270.988 656.053 272.024 656.053C273.053 656.053 273.832 655.424 273.832 654.587C273.832 653.927 273.422 653.466 272.748 653.387V653.329C273.292 653.206 273.63 652.768 273.63 652.187C273.63 651.446 272.926 650.882 272.01 650.882C271.022 650.882 270.38 651.432 270.328 652.324H271.056C271.097 651.839 271.45 651.541 271.986 651.541C272.523 651.541 272.875 651.842 272.875 652.3C272.875 652.765 272.509 653.086 271.979 653.086H271.381V653.719ZM262.276 664.053C263.425 664.053 264.095 663.106 264.095 661.469C264.095 659.835 263.415 658.882 262.276 658.882C261.131 658.882 260.451 659.832 260.451 661.462C260.451 663.103 261.125 664.053 262.276 664.053ZM262.276 663.383C261.606 663.383 261.224 662.71 261.224 661.462C261.224 660.228 261.613 659.552 262.276 659.552C262.939 659.552 263.322 660.225 263.322 661.462C263.322 662.713 262.946 663.383 262.276 663.383ZM267.172 664.053C268.321 664.053 268.991 663.106 268.991 661.469C268.991 659.835 268.31 658.882 267.172 658.882C266.027 658.882 265.347 659.832 265.347 661.462C265.347 663.103 266.02 664.053 267.172 664.053ZM267.172 663.383C266.502 663.383 266.12 662.71 266.12 661.462C266.12 660.228 266.509 659.552 267.172 659.552C267.835 659.552 268.218 660.225 268.218 661.462C268.218 662.713 267.842 663.383 267.172 663.383ZM272.595 663.933H273.333V662.98H274.013V662.296H273.333V659.001H272.242C271.364 660.317 270.629 661.462 270.188 662.269V662.98H272.595V663.933ZM270.923 662.265C271.504 661.257 272.072 660.382 272.56 659.675H272.605V662.313H270.923V662.265Z" fill="white"/>
<rect opacity="0.1" y="105" width="3.76195" height="3.75252" fill="white"/>
<rect opacity="0.1" x="13.1669" y="105" width="3.76195" height="3.75252" fill="white"/>
<rect opacity="0.1" x="25.3932" y="105" width="3.76195" height="3.75252" fill="white"/>
<rect opacity="0.1" x="38.5601" y="105" width="3.76195" height="3.75252" fill="white"/>
<rect opacity="0.1" x="51.7268" y="105" width="3.76195" height="3.75252" fill="white"/>
<rect opacity="0.1" x="64.8937" y="105" width="3.76195" height="3.75252" fill="white"/>
<rect opacity="0.1" x="78.0605" y="105" width="3.76195" height="3.75252" fill="white"/>
<rect opacity="0.1" x="91.2273" y="105" width="3.76195" height="3.75252" fill="white"/>
<rect opacity="0.1" x="51.7268" y="118.134" width="3.76195" height="3.75252" fill="white"/>
<rect opacity="0.1" x="64.8937" y="118.134" width="3.76195" height="3.75252" fill="white"/>
<rect opacity="0.1" x="78.0605" y="118.134" width="3.76195" height="3.75252" fill="white"/>
<rect opacity="0.1" x="91.2273" y="118.134" width="3.76195" height="3.75252" fill="white"/>
<rect opacity="0.1" x="51.7268" y="131.268" width="3.76195" height="3.75252" fill="white"/>
<rect opacity="0.1" x="64.8937" y="131.268" width="3.76195" height="3.75252" fill="white"/>
<rect opacity="0.1" x="51.7268" y="144.402" width="3.76195" height="3.75252" fill="white"/>
<rect opacity="0.1" x="64.8937" y="144.402" width="3.76195" height="3.75252" fill="white"/>
<rect opacity="0.1" x="51.7268" y="157.535" width="3.76195" height="3.75252" fill="white"/>
<rect opacity="0.1" x="64.8937" y="157.535" width="3.76195" height="3.75252" fill="white"/>
<rect opacity="0.1" x="25.3932" y="144.402" width="3.76195" height="3.75252" fill="white"/>
<rect opacity="0.1" x="38.5601" y="144.402" width="3.76195" height="3.75252" fill="white"/>
<rect opacity="0.1" y="144.402" width="3.76195" height="3.75252" fill="white"/>
<rect opacity="0.1" x="13.1669" y="144.402" width="3.76195" height="3.75252" fill="white"/>
<rect opacity="0.1" x="25.3932" y="157.535" width="3.76195" height="3.75252" fill="white"/>
<rect opacity="0.1" x="38.5601" y="157.535" width="3.76195" height="3.75252" fill="white"/>
<rect opacity="0.1" x="78.0605" y="131.268" width="3.76195" height="3.75252" fill="white"/>
<rect opacity="0.1" x="91.2273" y="131.268" width="3.76195" height="3.75252" fill="white"/>
<g opacity="0.1">
<path d="M1299.14 414H1293V420.124H1299.14V414Z" fill="white"/>
<path d="M1299.14 435.487H1293V441.611H1299.14V435.487Z" fill="white"/>
<path d="M1299.14 455.44H1293V461.564H1299.14V455.44Z" fill="white"/>
<path d="M1299.14 476.927H1293V483.051H1299.14V476.927Z" fill="white"/>
<path d="M1299.14 498.414H1293V504.538H1299.14V498.414Z" fill="white"/>
<path d="M1299.14 519.902H1293V526.026H1299.14V519.902Z" fill="white"/>
<path d="M1299.14 541.389H1293V547.513H1299.14V541.389Z" fill="white"/>
<path d="M1299.14 562.876H1293V569H1299.14V562.876Z" fill="white"/>
<path d="M1320.59 498.414H1314.45V504.538H1320.59V498.414Z" fill="white"/>
<path d="M1320.59 519.902H1314.45V526.026H1320.59V519.902Z" fill="white"/>
<path d="M1320.59 541.389H1314.45V547.513H1320.59V541.389Z" fill="white"/>
<path d="M1320.59 562.876H1314.45V569H1320.59V562.876Z" fill="white"/>
<path d="M1342.04 498.414H1335.89V504.538H1342.04V498.414Z" fill="white"/>
<path d="M1342.04 519.902H1335.89V526.026H1342.04V519.902Z" fill="white"/>
<path d="M1363.48 498.414H1357.34V504.538H1363.48V498.414Z" fill="white"/>
<path d="M1363.48 519.902H1357.34V526.026H1363.48V519.902Z" fill="white"/>
<path d="M1384.93 498.414H1378.79V504.538H1384.93V498.414Z" fill="white"/>
<path d="M1384.93 519.902H1378.79V526.026H1384.93V519.902Z" fill="white"/>
<path d="M1363.48 455.44H1357.34V461.564H1363.48V455.44Z" fill="white"/>
<path d="M1363.48 476.927H1357.34V483.051H1363.48V476.927Z" fill="white"/>
<path d="M1363.48 414H1357.34V420.124H1363.48V414Z" fill="white"/>
<path d="M1363.48 435.487H1357.34V441.611H1363.48V435.487Z" fill="white"/>
<path d="M1384.93 455.44H1378.79V461.564H1384.93V455.44Z" fill="white"/>
<path d="M1384.93 476.927H1378.79V483.051H1384.93V476.927Z" fill="white"/>
<path d="M1342.04 541.389H1335.89V547.513H1342.04V541.389Z" fill="white"/>
<path d="M1342.04 562.876H1335.89V569H1342.04V562.876Z" fill="white"/>
</g>
<g opacity="0.1">
<path d="M1444.86 546.999H1451V553.124H1444.86V546.999Z" fill="white"/>
<path d="M1444.86 568.487H1451V574.611H1444.86V568.487Z" fill="white"/>
<path d="M1444.86 588.439H1451V594.563H1444.86V588.439Z" fill="white"/>
<path d="M1444.86 609.926H1451V616.05H1444.86V609.926Z" fill="white"/>
<path d="M1444.86 631.414H1451V637.538H1444.86V631.414Z" fill="white"/>
<path d="M1444.86 652.901H1451V659.025H1444.86V652.901Z" fill="white"/>
<path d="M1444.86 674.389H1451V680.513H1444.86V674.389Z" fill="white"/>
<path d="M1444.86 695.876H1451V702H1444.86V695.876Z" fill="white"/>
<path d="M1423.41 631.414H1429.55V637.538H1423.41V631.414Z" fill="white"/>
<path d="M1423.41 652.901H1429.55V659.025H1423.41V652.901Z" fill="white"/>
<path d="M1423.41 674.389H1429.55V680.513H1423.41V674.389Z" fill="white"/>
<path d="M1423.41 695.876H1429.55V702H1423.41V695.876Z" fill="white"/>
<path d="M1401.96 631.414H1408.11V637.538H1401.96V631.414Z" fill="white"/>
<path d="M1401.96 652.901H1408.11V659.025H1401.96V652.901Z" fill="white"/>
<path d="M1380.52 631.414H1386.66V637.538H1380.52V631.414Z" fill="white"/>
<path d="M1380.52 652.901H1386.66V659.025H1380.52V652.901Z" fill="white"/>
<path d="M1359.07 631.414H1365.21V637.538H1359.07V631.414Z" fill="white"/>
<path d="M1359.07 652.901H1365.21V659.025H1359.07V652.901Z" fill="white"/>
<path d="M1380.52 588.439H1386.66V594.563H1380.52V588.439Z" fill="white"/>
<path d="M1380.52 609.926H1386.66V616.05H1380.52V609.926Z" fill="white"/>
<path d="M1380.52 546.999H1386.66V553.124H1380.52V546.999Z" fill="white"/>
<path d="M1380.52 568.487H1386.66V574.611H1380.52V568.487Z" fill="white"/>
<path d="M1359.07 588.439H1365.21V594.563H1359.07V588.439Z" fill="white"/>
<path d="M1359.07 609.926H1365.21V616.05H1359.07V609.926Z" fill="white"/>
<path d="M1401.96 674.389H1408.11V680.513H1401.96V674.389Z" fill="white"/>
<path d="M1401.96 695.876H1408.11V702H1401.96V695.876Z" fill="white"/>
</g>
</g>
</svg>
